<svg xmlns="http://www.w3.org/2000/svg" width="24" height="24" viewBox="0 0 24 24">
  <g id="Group_104170" data-name="Group 104170" transform="translate(-834 -516)">
    <path id="Path_258" data-name="Path 258" d="M0,0H24V24H0Z" transform="translate(834 516)" fill="none"/>
    <path id="Path_259" data-name="Path 259" d="M13,19h6V9.978L12,4.534,5,9.978V19h6V13h2Zm8,1a1,1,0,0,1-1,1H4a1,1,0,0,1-1-1V9.49a1,1,0,0,1,.386-.79l8-6.222a1,1,0,0,1,1.228,0l8,6.222A1,1,0,0,1,21,9.49V20Z" transform="translate(834 516)" fill="#cbcbcb"/>
  </g>
</svg>
