<svg xmlns="http://www.w3.org/2000/svg" width="14.667" height="10" viewBox="0 0 14.667 10">
  <path id="visibility_FILL0_wght400_GRAD0_opsz48" d="M47.335,263.833a2.82,2.82,0,1,0-2.008-.825A2.728,2.728,0,0,0,47.335,263.833Zm-.006-.967a1.791,1.791,0,0,1-1.321-.546A1.811,1.811,0,0,1,45.467,261a1.791,1.791,0,0,1,.546-1.321,1.81,1.81,0,0,1,1.325-.542,1.791,1.791,0,0,1,1.321.546A1.811,1.811,0,0,1,49.2,261a1.791,1.791,0,0,1-.546,1.321A1.811,1.811,0,0,1,47.329,262.867Zm0,3.133a7.47,7.47,0,0,1-4.4-1.383A8.427,8.427,0,0,1,40,261a8.428,8.428,0,0,1,2.933-3.617,7.689,7.689,0,0,1,8.8,0A8.428,8.428,0,0,1,54.667,261a8.427,8.427,0,0,1-2.933,3.617A7.47,7.47,0,0,1,47.333,266ZM47.333,261Zm0,4a6.707,6.707,0,0,0,3.711-1.092A7.083,7.083,0,0,0,53.617,261a7.091,7.091,0,0,0-2.572-2.908,6.849,6.849,0,0,0-7.419,0A7.2,7.2,0,0,0,41.033,261a7.209,7.209,0,0,0,2.589,2.908A6.693,6.693,0,0,0,47.331,265Z" transform="translate(-40 -256)" fill="#acacac"/>
</svg>
