<svg xmlns="http://www.w3.org/2000/svg" width="40" height="40" viewBox="0 0 40 40">
    <g id="Group_104083" data-name="Group 104083" transform="translate(-99 -1596)">
        <rect id="Rectangle_34794" data-name="Rectangle 34794" width="40" height="40" rx="20"
            transform="translate(99 1596)" fill="#1a1a1a" />
        <path id="shield-check"
            d="M15.817,1.783,10.6.042a.833.833,0,0,0-.527,0L4.849,1.783A4.161,4.161,0,0,0,2,5.736V10c0,6.3,7.667,9.783,7.995,9.928a.833.833,0,0,0,.677,0C11,19.783,18.666,16.3,18.666,10V5.736a4.161,4.161,0,0,0-2.849-3.952ZM14.265,8.1l-3.56,3.56a1.561,1.561,0,0,1-1.112.461H9.565a1.56,1.56,0,0,1-1.121-.5l-1.922-2a.833.833,0,1,1,1.2-1.152l1.87,1.95,3.49-3.5a.833.833,0,1,1,1.178,1.178Z"
            transform="translate(109 1606)" fill="#76dcc2" />
    </g>
</svg>
