<svg xmlns="http://www.w3.org/2000/svg" xmlns:xlink="http://www.w3.org/1999/xlink" width="24" height="24" viewBox="0 0 24 24">
  <defs>
    <clipPath id="clip-path">
      <rect id="Rectangle_57" data-name="Rectangle 57" width="24" height="24" transform="translate(171 134)" fill="#ff0c0c" stroke="#707070" stroke-width="1"/>
    </clipPath>
  </defs>
  <g id="Mask_Group_2" data-name="Mask Group 2" transform="translate(-171 -134)" clip-path="url(#clip-path)">
    <path id="Path_36" data-name="Path 36" d="M324.234,65.974l3.8,3.8-1.26,1.26-3.8-3.8a8.227,8.227,0,0,1-2.343,1.287,8,8,0,0,1-6.673-.63,7.974,7.974,0,0,1-2.875-2.875,8.038,8.038,0,0,1,0-8.058,7.974,7.974,0,0,1,2.875-2.875,8.038,8.038,0,0,1,8.058,0,7.974,7.974,0,0,1,2.875,2.875,8,8,0,0,1,.63,6.673A8.222,8.222,0,0,1,324.234,65.974Zm-1.793-.657a6.046,6.046,0,0,0,1.3-2,6.209,6.209,0,0,0,.453-2.334,6.112,6.112,0,0,0-.852-3.142,6.046,6.046,0,0,0-2.219-2.219,6.218,6.218,0,0,0-6.283,0,6.046,6.046,0,0,0-2.219,2.219,6.218,6.218,0,0,0,0,6.283,6.046,6.046,0,0,0,2.219,2.219,6.111,6.111,0,0,0,3.142.852,6.207,6.207,0,0,0,2.334-.453,6.041,6.041,0,0,0,2-1.3Z" transform="translate(-136 84)" fill="#fff"/>
  </g>
</svg>
