<svg xmlns="http://www.w3.org/2000/svg" width="24" height="24" viewBox="0 0 24 24">
  <g id="Group_103807" data-name="Group 103807" transform="translate(1592 8800)">
    <rect id="Rectangle_34715" data-name="Rectangle 34715" width="24" height="24" transform="translate(-1592 -8800)" fill="#fff" opacity="0"/>
    <path id="shopping_cart_FILL0_wght400_GRAD0_opsz48" d="M57.015,196a1.773,1.773,0,0,1-1.3-.531,1.733,1.733,0,0,1-.536-1.277,1.707,1.707,0,0,1,.541-1.271,1.8,1.8,0,0,1,1.3-.526,1.773,1.773,0,0,1,1.3.531,1.733,1.733,0,0,1,.536,1.277,1.708,1.708,0,0,1-.541,1.271A1.8,1.8,0,0,1,57.015,196Zm10.2,0a1.773,1.773,0,0,1-1.3-.531,1.733,1.733,0,0,1-.536-1.277,1.707,1.707,0,0,1,.541-1.271,1.8,1.8,0,0,1,1.3-.526,1.773,1.773,0,0,1,1.3.531,1.733,1.733,0,0,1,.536,1.277,1.708,1.708,0,0,1-.541,1.271A1.8,1.8,0,0,1,67.219,196ZM55.694,179.479l2.806,5.707h7.347l3.189-5.707Zm-.765-1.5H69.956a1.051,1.051,0,0,1,.891,1.577L67.4,185.637a2.254,2.254,0,0,1-.729.763,1.779,1.779,0,0,1-.981.288h-7.73l-1.429,2.6H69.061v1.5h-12.3a1.724,1.724,0,0,1-1.543-.7,1.418,1.418,0,0,1,.013-1.577l1.633-2.954L52.99,177.5H51V176h2.985Zm3.571,7.209h0Z" transform="translate(-1641 -8974)" fill="#fff"/>
    <g id="Ellipse_2599" data-name="Ellipse 2599" transform="translate(-1576 -8799)" fill="#76dcc2" stroke="#0b0b0c" stroke-width="1">
      <circle cx="4" cy="4" r="4" stroke="none"/>
      <circle cx="4" cy="4" r="3.5" fill="none"/>
    </g>
  </g>
</svg>
