<svg id="Silver" xmlns="http://www.w3.org/2000/svg" xmlns:xlink="http://www.w3.org/1999/xlink" width="24" height="24.002" viewBox="0 0 24 24.002">
  <defs>
    <linearGradient id="linear-gradient" y1="0.5" x2="1" y2="0.5" gradientUnits="objectBoundingBox">
      <stop offset="0" stop-color="#dde8fb"/>
      <stop offset="1" stop-color="#b1bfd8"/>
    </linearGradient>
    <linearGradient id="linear-gradient-2" y1="0.5" x2="1" y2="0.5" gradientUnits="objectBoundingBox">
      <stop offset="0" stop-color="#fff"/>
      <stop offset="1" stop-color="#fff"/>
    </linearGradient>
  </defs>
  <path id="Path_187254" data-name="Path 187254" d="M151.363,137.47a2.523,2.523,0,0,1,3.64,0l.153.159a2.523,2.523,0,0,0,2.4.708l.21-.05a2.523,2.523,0,0,1,3.054,1.962l.053.265a2.524,2.524,0,0,0,1.621,1.881l.246.088a2.523,2.523,0,0,1,1.5,3.284l-.111.286a2.523,2.523,0,0,0,.349,2.443l.185.241a2.523,2.523,0,0,1-.513,3.569l-.232.17a2.524,2.524,0,0,0-1.023,2.252l.025.293a2.523,2.523,0,0,1-2.371,2.735l-.234.013a2.523,2.523,0,0,0-2.095,1.353l-.112.215a2.523,2.523,0,0,1-3.49,1.024l-.183-.1a2.523,2.523,0,0,0-2.505,0l-.183.1a2.523,2.523,0,0,1-3.49-1.024l-.112-.215a2.523,2.523,0,0,0-2.095-1.353l-.234-.013a2.523,2.523,0,0,1-2.371-2.735l.025-.293a2.523,2.523,0,0,0-1.023-2.252l-.232-.17a2.523,2.523,0,0,1-.513-3.569l.184-.241a2.523,2.523,0,0,0,.349-2.443l-.111-.286a2.523,2.523,0,0,1,1.5-3.284l.246-.088a2.523,2.523,0,0,0,1.621-1.881l.053-.265a2.523,2.523,0,0,1,3.054-1.962l.21.05a2.523,2.523,0,0,0,2.4-.708Z" transform="translate(-141.183 -136.694)" fill="url(#linear-gradient)"/>
  <path id="Path_187255" data-name="Path 187255" d="M163.057,167.1a9.045,9.045,0,0,1,9.045-9.045h0a9.045,9.045,0,0,1,9.045,9.045v.186a9.045,9.045,0,0,1-9.045,9.045h0a9.045,9.045,0,0,1-9.045-9.045Z" transform="translate(-160.145 -155.146)" fill="#dde8fb"/>
  <path id="Path_187256" data-name="Path 187256" d="M185.733,172.631v.186a8.1,8.1,0,1,1-16.206,0v-.186a8.1,8.1,0,1,1,16.206,0Z" transform="translate(-165.668 -160.669)" fill="none" stroke="rgba(255,255,255,0.3)" stroke-width="3.575"/>
  <path id="Path_187257" data-name="Path 187257" d="M177.971,165.607a7.44,7.44,0,1,1-7.439-7.515A7.478,7.478,0,0,1,177.971,165.607Zm-13.327,0a5.888,5.888,0,1,0,5.887-5.947A5.918,5.918,0,0,0,164.644,165.607Z" transform="translate(-158.564 -153.547)" fill="url(#linear-gradient-2)"/>
  <g id="Group_104021" data-name="Group 104021" transform="translate(8.955 9.71)">
    <path id="Path_187258" data-name="Path 187258" d="M198.874,200.6l-1.284-1.3a.366.366,0,0,0-.522,0,.375.375,0,0,0,0,.527l1.547,1.563a.366.366,0,0,0,.522,0l3.916-3.957a.375.375,0,0,0,0-.527.366.366,0,0,0-.522,0Z" transform="translate(-196.959 -196.802)" fill="#1a1a1a"/>
    <path id="Path_187259" data-name="Path 187259" d="M198.874,200.6l-1.284-1.3a.366.366,0,0,0-.522,0,.375.375,0,0,0,0,.527l1.547,1.563a.366.366,0,0,0,.522,0l3.916-3.957a.375.375,0,0,0,0-.527.366.366,0,0,0-.522,0Z" transform="translate(-196.959 -196.802)" fill="none" stroke="#1a1a1a" stroke-width="0.759"/>
  </g>
</svg>
