<svg id="Group_104183" data-name="Group 104183" xmlns="http://www.w3.org/2000/svg" width="20" height="20" viewBox="0 0 20 20">
  <path id="check_circle_FILL0_wght400_GRAD0_opsz48" d="M86.82,187.64l5.66-5.66-.92-.9-4.74,4.74-2.4-2.4-.9.9ZM88,192a7.741,7.741,0,0,1-3.1-.63,8.06,8.06,0,0,1-4.27-4.27,7.991,7.991,0,0,1,0-6.22,8,8,0,0,1,1.72-2.54,8.2,8.2,0,0,1,2.55-1.71,7.991,7.991,0,0,1,6.22,0,7.987,7.987,0,0,1,4.25,4.25,7.991,7.991,0,0,1,0,6.22,8.2,8.2,0,0,1-1.71,2.55,8,8,0,0,1-2.54,1.72A7.79,7.79,0,0,1,88,192Zm0-1.2a6.794,6.794,0,1,0-4.81-1.99A6.543,6.543,0,0,0,88,190.8ZM88,184Z" transform="translate(-78 -174)" fill="#76dcc2"/>
  <rect id="Rectangle_34782" data-name="Rectangle 34782" width="20" height="20" fill="none"/>
</svg>
